# xmcd
#
# Track frame offsets: 
#        150
#        15662
#        36337
#        58281
#        72075
#
# Disc length: 1150 seconds
#
# Revision: 0
# Processed by: cddbd v1.5.2PL0 Copyright (c) Steve Scherf et al.
# Submitted via: ExactAudioCopy v1.0b1
#
DISCID=41047c05
DTITLE=saint jude's infirmary - EP
DYEAR=2003
DGENRE=Indie
TTITLE0=Remember Dresden
TTITLE1=Damn the U.V.
TTITLE2=Happy Healthy Lucky Month
TTITLE3=Sylvia Plath's Platinum Summer
TTITLE4=P.S. Scotland
EXTD=
EXTT0=
EXTT1=
EXTT2=
EXTT3=
EXTT4=
PLAYORDER=
